<svg xmlns="http://www.w3.org/2000/svg" width="400" height="400" version="1.1">
  <style>
    .light-square { fill: #f0d9b5; }
    .dark-square { fill: #b58863; }
    .queen { font-size: 40px; font-weight: bold; fill: #000000; }
  </style>
  
  <g>
    <!-- Рисуем шахматную доску -->
    <rect x="0" y="0" width="50" height="50" class="light-square" />
    <rect x="50" y="0" width="50" height="50" class="dark-square" />
    <rect x="100" y="0" width="50" height="50" class="light-square" />
    <rect x="150" y="0" width="50" height="50" class="dark-square" />
    <rect x="200" y="0" width="50" height="50" class="light-square" />
    <rect x="250" y="0" width="50" height="50" class="dark-square" />
    <rect x="300" y="0" width="50" height="50" class="light-square" />
    <rect x="350" y="0" width="50" height="50" class="dark-square" />

    <rect x="0" y="50" width="50" height="50" class="dark-square" />
    <rect x="50" y="50" width="50" height="50" class="light-square" />
    <rect x="100" y="50" width="50" height="50" class="dark-square" />
    <rect x="150" y="50" width="50" height="50" class="light-square" />
    <rect x="200" y="50" width="50" height="50" class="dark-square" />
    <rect x="250" y="50" width="50" height="50" class="light-square" />
    <rect x="300" y="50" width="50" height="50" class="dark-square" />
    <rect x="350" y="50" width="50" height="50" class="light-square" />

    <rect x="0" y="100" width="50" height="50" class="light-square" />
    <rect x="50" y="100" width="50" height="50" class="dark-square" />
    <rect x="100" y="100" width="50" height="50" class="light-square" />
    <rect x="150" y="100" width="50" height="50" class="dark-square" />
    <rect x="200" y="100" width="50" height="50" class="light-square" />
    <rect x="250" y="100" width="50" height="50" class="dark-square" />
    <rect x="300" y="100" width="50" height="50" class="light-square" />
    <rect x="350" y="100" width="50" height="50" class="dark-square" />

    <rect x="0" y="150" width="50" height="50" class="dark-square" />
    <rect x="50" y="150" width="50" height="50" class="light-square" />
    <rect x="100" y="150" width="50" height="50" class="dark-square" />
    <rect x="150" y="150" width="50" height="50" class="light-square" />
    <rect x="200" y="150" width="50" height="50" class="dark-square" />
    <rect x="250" y="150" width="50" height="50" class="light-square" />
    <rect x="300" y="150" width="50" height="50" class="dark-square" />
    <rect x="350" y="150" width="50" height="50" class="light-square" />

    <rect x="0" y="200" width="50" height="50" class="light-square" />
    <rect x="50" y="200" width="50" height="50" class="dark-square" />
    <rect x="100" y="200" width="50" height="50" class="light-square" />
    <rect x="150" y="200" width="50" height="50" class="dark-square" />
    <rect x="200" y="200" width="50" height="50" class="light-square" />
    <rect x="250" y="200" width="50" height="50" class="dark-square" />
    <rect x="300" y="200" width="50" height="50" class="light-square" />
    <rect x="350" y="200" width="50" height="50" class="dark-square" />

    <rect x="0" y="250" width="50" height="50" class="dark-square" />
    <rect x="50" y="250" width="50" height="50" class="light-square" />
    <rect x="100" y="250" width="50" height="50" class="dark-square" />
    <rect x="150" y="250" width="50" height="50" class="light-square" />
    <rect x="200" y="250" width="50" height="50" class="dark-square" />
    <rect x="250" y="250" width="50" height="50" class="light-square" />
    <rect x="300" y="250" width="50" height="50" class="dark-square" />
    <rect x="350" y="250" width="50" height="50" class="light-square" />

    <rect x="0" y="300" width="50" height="50" class="light-square" />
    <rect x="50" y="300" width="50" height="50" class="dark-square" />
    <rect x="100" y="300" width="50" height="50" class="light-square" />
    <rect x="150" y="300" width="50" height="50" class="dark-square" />
    <rect x="200" y="300" width="50" height="50" class="light-square" />
    <rect x="250" y="300" width="50" height="50" class="dark-square" />
    <rect x="300" y="300" width="50" height="50" class="light-square" />
    <rect x="350" y="300" width="50" height="50" class="dark-square" />

    <rect x="0" y="350" width="50" height="50" class="dark-square" />
    <rect x="50" y="350" width="50" height="50" class="light-square" />
    <rect x="100" y="350" width="50" height="50" class="dark-square" />
    <rect x="150" y="350" width="50" height="50" class="light-square" />
    <rect x="200" y="350" width="50" height="50" class="dark-square" />
    <rect x="250" y="350" width="50" height="50" class="light-square" />
    <rect x="300" y="350" width="50" height="50" class="dark-square" />
    <rect x="350" y="350" width="50" height="50" class="light-square" />

    <!-- Позиционируем ферзей -->
    <text x="15" y="40" class="queen">1</text>
    <text x="65" y="240" class="queen">5</text>
    <text x="115" y="390" class="queen">8</text>
    <text x="325" y="90" class="queen">6</text>
    <text x="25" y="190" class="queen">3</text>
    <text x="225" y="190" class="queen">7</text>
    <text x="125" y="240" class="queen">2</text>
    <text x="325" y="240" class="queen">4</text>
  </g>
</svg>
